<svg width="100" height="40" viewBox="0 0 100 40" xmlns="http://www.w3.org/2000/svg">
  <path d="M50,10 C38.95,10 30,18.95 30,30 C30,38.85 36.15,46.3 44.35,48.55 C45.35,48.75 45.7,48.15 45.7,47.65 C45.7,47.15 45.7,45.85 45.7,44.35 C39.95,45.45 38.65,41.95 38.65,41.95 C37.65,39.75 36.25,39.15 36.25,39.15 C34.35,37.95 36.35,37.95 36.35,37.95 C38.35,38.05 39.55,39.85 39.55,39.85 C41.35,42.75 44.15,41.95 45.75,41.45 C45.95,40.15 46.45,39.25 47.05,38.75 C42.55,38.25 37.85,36.55 37.85,28.95 C37.85,26.75 38.75,24.95 39.65,23.55 C39.45,23.05 38.65,21.05 39.85,18.05 C39.85,18.05 41.55,17.55 45.65,20.05 C47.05,19.65 48.55,19.45 50.05,19.45 C51.55,19.45 53.05,19.65 54.45,20.05 C58.55,17.55 60.25,18.05 60.25,18.05 C61.45,21.05 60.65,23.05 60.45,23.55 C61.35,24.95 62.25,26.75 62.25,28.95 C62.25,36.55 57.55,38.25 53.05,38.75 C53.75,39.35 54.45,40.55 54.45,42.35 C54.45,44.95 54.45,47.05 54.45,47.65 C54.45,48.15 54.8,48.75 55.8,48.55 C63.95,46.3 70.1,38.85 70.1,30 C70,18.95 61.05,10 50,10 Z" fill="#ffffff"/>
</svg> 